<?xml version="1.0" standalone="no"?>
<!DOCTYPE svg PUBLIC "-//W3C//DTD SVG 20010904//EN"
 "http://www.w3.org/TR/2001/REC-SVG-20010904/DTD/svg10.dtd">
<svg version="1.0" xmlns="http://www.w3.org/2000/svg"
 width="574.000000pt" height="325.000000pt" viewBox="0 0 574.000000 325.000000"
 preserveAspectRatio="xMidYMid meet">

<g transform="translate(0.000000,325.000000) scale(0.100000,-0.100000)"
fill="#000000" stroke="none">
<path d="M2 1628 l-2 -1628 2873 2 2872 3 -2867 2 -2868 3 -3 1623 -2 1622 -3
-1627z"/>
<path d="M5720 1830 l0 -1400 -1807 0 c-995 0 -2275 0 -2845 0 l-1038 0 0
-200 0 -200 2850 0 2850 0 0 1600 c0 880 -2 1600 -5 1600 -3 0 -5 -630 -5
-1400z m-488 -1512 c-7 -7 -5 -22 5 -46 17 -40 6 -99 -22 -122 -19 -16 -19 -3
0 30 19 33 19 71 0 96 -14 18 -15 16 -9 -22 4 -24 1 -50 -5 -63 -18 -32 -32
-25 -15 8 14 29 10 61 -8 61 -5 0 -7 -8 -4 -18 4 -10 -1 -27 -9 -38 -14 -18
-15 -17 -9 10 5 21 4 27 -5 22 -6 -4 -11 -24 -11 -45 0 -47 -6 -54 -34 -35
-21 13 -25 12 -46 -11 -12 -13 -27 -22 -32 -19 -5 4 2 19 17 34 l27 28 -28 4
c-26 3 -29 8 -32 41 -3 34 -1 37 23 37 15 0 41 11 59 25 36 27 46 24 46 -14 0
-25 1 -25 41 17 23 23 46 39 51 36 6 -4 6 -10 0 -16z m-4972 -33 c38 -26 70
-48 70 -51 0 -7 -137 -94 -149 -94 -7 0 -11 34 -11 95 0 55 4 95 10 95 5 0 41
-20 80 -45z m408 34 c84 -29 82 -151 -3 -179 -27 -9 -41 -8 -72 6 -21 9 -33
18 -26 21 7 2 21 0 32 -6 31 -17 58 -13 87 12 79 68 -24 181 -106 117 -14 -11
-19 -20 -12 -20 24 0 12 -20 -13 -20 -22 0 -25 4 -24 33 0 25 2 28 8 13 6 -15
10 -16 15 -7 7 11 61 40 77 41 3 0 20 -5 37 -11z m4876 -6 c4 -4 15 -8 23 -8
21 0 56 -63 47 -84 -4 -9 -6 -21 -5 -27 2 -14 -27 -39 -36 -31 -3 4 -11 -1
-18 -10 -9 -11 -18 -14 -31 -8 -10 5 -25 9 -33 9 -20 1 -54 65 -45 85 4 9 8
22 8 30 1 8 15 22 31 32 34 20 48 23 59 12z m-4925 -85 c-1 -31 -1 -31 -8 -8
-5 14 -6 28 -4 33 9 15 13 6 12 -25z m56 2 c0 -27 -22 -39 -31 -16 -8 22 3 49
19 43 6 -2 12 -14 12 -27z"/>
<path d="M5098 276 c-11 -8 -18 -26 -18 -47 l0 -33 21 20 c13 13 19 31 17 47
-3 23 -5 24 -20 13z"/>
<path d="M5030 230 c0 -20 5 -30 15 -30 10 0 15 10 15 30 0 20 -5 30 -15 30
-10 0 -15 -10 -15 -30z"/>
<path d="M5105 191 c-3 -5 -1 -12 5 -16 5 -3 10 1 10 9 0 18 -6 21 -15 7z"/>
<path d="M5506 295 c-3 -8 -12 -15 -21 -15 -8 0 -15 -8 -15 -18 0 -10 -5 -23
-12 -30 -9 -9 -8 -15 7 -25 10 -8 15 -19 11 -25 -5 -8 1 -12 16 -12 13 0 29
-5 36 -12 9 -9 15 -8 25 7 8 10 19 15 25 11 8 -5 12 2 12 18 0 14 5 28 11 31
7 5 5 13 -6 25 -9 10 -14 24 -10 29 4 7 -4 11 -19 11 -14 0 -28 5 -31 10 -9
15 -22 12 -29 -5z m49 -65 c0 -20 -6 -26 -26 -28 -28 -3 -43 16 -32 44 3 9 15
14 32 12 20 -2 26 -8 26 -28z"/>
<path d="M5510 230 c0 -13 7 -20 20 -20 13 0 20 7 20 20 0 13 -7 20 -20 20
-13 0 -20 -7 -20 -20z"/>
<path d="M650 225 c0 -8 5 -15 10 -15 6 0 10 7 10 15 0 8 -4 15 -10 15 -5 0
-10 -7 -10 -15z"/>
<path d="M703 3025 c-76 -21 -123 -47 -185 -104 -97 -88 -147 -222 -135 -354
7 -75 15 -97 34 -97 8 0 12 4 9 8 -3 5 -9 36 -15 70 -28 174 65 349 226 425
56 26 84 32 161 37 50 3 92 2 92 -3 0 -4 12 -4 26 -1 21 5 25 4 19 -6 -6 -10
-3 -12 13 -8 12 4 20 3 17 -2 -2 -4 13 -15 35 -25 22 -10 47 -26 56 -36 18
-20 44 -25 44 -10 0 26 -127 96 -193 107 -77 13 -155 13 -204 -1z m-237 -183
c-17 -16 -18 -16 -5 5 7 12 15 20 18 17 3 -2 -3 -12 -13 -22z"/>
<path d="M677 2946 c-147 -61 -226 -177 -227 -338 -1 -205 152 -358 361 -359
85 -1 156 24 227 77 40 31 94 103 86 115 -3 5 -1 9 5 9 21 0 43 100 40 179 -7
146 -96 269 -233 320 -80 30 -182 28 -259 -3z m214 -89 c31 -16 51 -36 67 -67
36 -72 32 -80 -42 -80 -57 0 -65 3 -80 25 -29 44 -75 24 -90 -39 -6 -25 -5
-27 11 -20 10 5 48 9 85 9 57 0 70 -3 93 -25 41 -38 55 -73 55 -136 0 -111
-71 -179 -185 -178 -96 1 -145 38 -175 129 -17 50 -18 217 -2 270 33 113 158
167 263 112z"/>
<path d="M767 2560 c-34 -41 -14 -90 38 -90 52 0 75 59 37 93 -25 23 -54 21
-75 -3z"/>
<path d="M2041 2958 c-1 -9 -9 -21 -18 -26 -25 -14 -29 -87 -6 -120 15 -22 19
-55 23 -177 l6 -150 2 153 c2 126 5 152 17 152 39 0 45 109 7 139 -11 9 -22
23 -25 31 -4 12 -6 12 -6 -2z m34 -78 c8 -25 -3 -62 -16 -55 -12 8 -12 75 0
75 5 0 13 -9 16 -20z m-35 -17 c0 -20 -3 -24 -11 -16 -7 7 -9 19 -6 27 10 24
17 19 17 -11z"/>
<path d="M1783 2953 c-19 -7 -17 -73 2 -73 11 0 15 11 15 40 0 22 -1 40 -2 39
-2 0 -9 -3 -15 -6z"/>
<path d="M1837 2953 c-10 -10 -8 -66 3 -83 7 -11 10 0 10 38 0 53 -1 57 -13
45z"/>
<path d="M1897 2938 c4 -7 10 -40 13 -73 4 -47 9 -61 23 -63 14 -3 17 5 17 52
0 49 2 56 20 56 13 0 20 7 20 20 0 17 -7 20 -51 20 -38 0 -48 -3 -42 -12z"/>
<path d="M1095 2901 c-3 -6 -3 -11 2 -11 4 0 19 -16 32 -35 13 -19 28 -32 33
-28 6 3 8 0 6 -8 -3 -8 2 -20 11 -27 9 -8 10 -11 3 -7 -10 5 -10 1 0 -19 6
-14 15 -26 19 -26 5 0 6 -7 3 -15 -3 -8 -2 -20 2 -27 5 -7 7 -49 5 -93 -3 -91
-34 -182 -85 -249 -74 -99 -236 -166 -360 -149 -52 6 -155 40 -171 56 -7 7
-33 28 -59 47 -25 19 -45 40 -46 45 0 6 -11 22 -25 37 -14 15 -25 30 -25 33 1
28 -2 35 -15 35 -19 0 -19 -2 2 -45 9 -19 24 -35 32 -35 12 0 13 -2 3 -8 -18
-12 90 -112 154 -144 98 -50 239 -62 319 -27 17 7 32 13 35 13 26 5 69 31 67
40 -1 6 4 10 12 8 14 -3 111 85 111 101 0 5 6 15 14 23 32 31 59 127 59 209 0
85 -1 96 -22 161 -14 43 -80 145 -98 151 -6 2 -14 -1 -18 -6z"/>
<path d="M4365 2881 c3 -5 1 -12 -5 -16 -5 -3 -10 -32 -9 -63 1 -50 2 -53 10
-27 5 16 10 41 13 55 2 14 7 33 11 43 5 12 2 17 -10 17 -9 0 -14 -4 -10 -9z"/>
<path d="M4136 2873 c-2 -2 -262 -5 -577 -5 -316 -1 -531 -5 -479 -9 73 -5 62
-6 -51 -3 -127 3 -148 2 -153 -12 -3 -9 -3 -21 1 -26 3 -7 1 -8 -5 -4 -7 4
-13 1 -13 -8 -2 -23 -3 -27 -23 -71 -9 -22 -18 -49 -19 -60 -1 -11 -5 -22 -8
-25 -6 -5 -49 -116 -49 -125 0 -3 217 -4 483 -3 265 1 457 4 427 8 -30 4 99 5
288 2 339 -5 342 -5 342 15 0 11 6 38 14 59 7 22 16 92 19 156 l7 118 -100 -2
c-55 -1 -102 -3 -104 -5z m191 -9 c-3 -3 -12 -4 -19 -1 -8 3 -5 6 6 6 11 1 17
-2 13 -5z m-1286 -94 c37 0 51 -4 56 -16 6 -15 7 -15 18 -1 8 11 36 18 87 23
89 8 128 1 128 -24 0 -15 2 -15 10 -2 8 12 10 11 10 -7 0 -20 -5 -23 -42 -24
-30 -2 -35 -3 -15 -6 34 -5 36 -33 2 -33 -16 0 -25 -6 -25 -15 0 -8 5 -15 11
-15 5 0 7 5 4 10 -4 6 5 10 19 10 18 0 26 5 26 18 1 15 2 14 12 -3 6 -11 15
-23 21 -26 10 -7 -11 -46 -30 -53 -10 -4 -10 -1 -1 14 10 15 10 22 1 31 -9 9
-11 7 -6 -10 5 -20 2 -21 -88 -22 -52 -1 -110 -2 -129 -3 -19 -1 -42 1 -51 6
-9 4 -21 2 -27 -4 -6 -6 -18 -8 -26 -5 -12 5 -16 21 -16 67 0 58 -1 60 -21 50
-11 -7 -27 -9 -35 -6 -8 3 -14 1 -14 -4 0 -6 14 -10 30 -10 20 0 30 -5 30 -15
0 -8 -7 -15 -16 -15 -8 0 -12 -4 -9 -10 3 -5 1 -10 -4 -10 -6 0 -12 -10 -12
-22 -1 -19 -3 -17 -9 7 l-8 30 -1 -33 c-1 -26 -5 -33 -18 -30 -15 3 -18 16
-21 84 l-3 81 47 2 c26 0 50 4 53 7 3 3 7 0 9 -5 2 -6 26 -11 53 -11z m27 13
c-10 -2 -28 -2 -40 0 -13 2 -5 4 17 4 22 1 32 -1 23 -4z m948 -15 c12 -5 30
-8 40 -5 13 3 9 5 -11 6 -29 2 -29 3 -7 12 15 6 30 5 40 -1 10 -5 13 -10 7
-10 -5 0 1 -6 15 -13 14 -7 26 -23 28 -35 2 -12 8 -20 13 -17 5 4 5 14 -2 26
-6 11 -8 27 -5 35 9 24 31 15 44 -18 6 -17 15 -29 18 -25 4 4 1 14 -6 22 -10
12 -10 19 -2 27 7 7 12 8 12 4 0 -5 6 -3 13 3 10 8 18 7 31 -2 17 -12 16 -15
-5 -52 -13 -21 -26 -57 -29 -79 -4 -32 -9 -41 -25 -41 -17 0 -19 6 -17 35 3
46 -7 60 -35 49 -15 -5 -21 -14 -17 -24 3 -8 10 -12 15 -9 11 6 11 1 3 -20
-10 -25 -42 -19 -58 12 l-16 27 3 -25 c2 -24 0 -25 -75 -28 l-78 -3 0 85 0 84
43 -5 c23 -2 52 -9 63 -15z m-556 2 c-13 -9 -13 -10 0 -11 8 -1 20 -1 26 0 18
2 11 -95 -9 -116 -9 -11 -17 -26 -17 -33 0 -11 -3 -11 -12 -2 -7 7 -24 12 -39
12 -27 0 -27 0 -31 80 l-3 80 50 0 c36 0 46 -3 35 -10z m152 -10 c5 -12 7 -12
7 3 1 21 27 23 35 1 3 -9 6 -38 6 -65 0 -47 1 -49 29 -49 25 0 28 3 23 25 -2
14 -1 40 2 59 9 45 38 39 60 -12 13 -31 12 -11 -1 24 -2 7 19 11 62 11 l66 0
-7 -26 c-8 -29 -8 -42 0 -86 3 -16 3 -21 0 -10 -10 33 -21 38 -28 11 -10 -40
-50 -36 -67 7 l-13 32 -3 -32 c-4 -30 -9 -35 -29 -32 -4 0 -11 -5 -15 -13 -7
-10 -9 -10 -9 0 0 8 -18 12 -55 12 -51 0 -55 2 -55 23 0 20 -4 23 -32 21 -30
-3 -31 -3 -8 5 l25 9 -27 1 c-19 1 -28 -4 -28 -14 0 -10 10 -15 30 -15 20 0
30 -5 30 -15 0 -11 -12 -15 -50 -15 l-50 0 0 78 0 77 47 0 c33 0 50 -5 55 -15z
m646 -50 c-11 -18 -28 -27 -28 -16 0 6 30 36 36 36 2 0 -1 -9 -8 -20z m-102
-88 c-11 -10 -14 3 -8 33 l7 30 3 -28 c2 -16 1 -31 -2 -35z m-1179 6 c-3 -8
-6 -5 -6 6 -1 11 2 17 5 13 3 -3 4 -12 1 -19z m523 2 c0 -13 -5 -18 -15 -14
-12 5 -13 10 -4 20 15 19 19 18 19 -6z m569 -24 c-5 -6 -85 -9 -129 -5 -19 1
1 5 45 8 78 6 93 5 84 -3z m-441 -3 c-10 -2 -28 -2 -40 0 -13 2 -5 4 17 4 22
1 32 -1 23 -4z m80 0 c-10 -2 -28 -2 -40 0 -13 2 -5 4 17 4 22 1 32 -1 23 -4z
m-251 -69 c-3 -3 -12 -4 -19 -1 -8 3 -5 6 6 6 11 1 17 -2 13 -5z m111 -1 c-10
-2 -26 -2 -35 0 -10 3 -2 5 17 5 19 0 27 -2 18 -5z"/>
<path d="M3222 2738 c-3 -43 -13 -58 -38 -58 -15 0 -24 -6 -24 -15 0 -19 59
-20 66 -1 3 7 4 33 1 57 -2 24 -4 32 -5 17z"/>
<path d="M3030 2725 c0 -10 7 -15 18 -13 21 4 19 22 -2 26 -10 2 -16 -3 -16
-13z"/>
<path d="M3173 2733 c9 -2 23 -2 30 0 6 3 -1 5 -18 5 -16 0 -22 -2 -12 -5z"/>
<path d="M3096 2691 c-4 -5 -2 -20 3 -33 9 -21 10 -21 10 10 1 32 -3 39 -13
23z"/>
<path d="M3953 2763 c9 -2 25 -2 35 0 9 3 1 5 -18 5 -19 0 -27 -2 -17 -5z"/>
<path d="M3950 2718 c0 -4 11 -8 24 -8 13 0 27 -6 30 -12 3 -7 5 -4 3 7 -2 14
-10 20 -30 20 -15 1 -27 -3 -27 -7z"/>
<path d="M4060 2714 c0 -9 5 -14 12 -12 18 6 21 28 4 28 -9 0 -16 -7 -16 -16z"/>
<path d="M3950 2665 c0 -10 9 -15 28 -14 27 2 27 2 2 7 l-25 5 25 8 25 7 -27
1 c-19 1 -28 -4 -28 -14z"/>
<path d="M3420 2690 c0 -27 4 -38 13 -35 6 3 12 21 12 40 0 21 -5 35 -12 35
-8 0 -13 -15 -13 -40z"/>
<path d="M3836 2714 c-4 -14 -5 -28 -3 -31 3 -2 8 8 11 23 4 14 5 28 3 31 -3
2 -8 -8 -11 -23z"/>
<path d="M3563 2713 c9 -2 25 -2 35 0 9 3 1 5 -18 5 -19 0 -27 -2 -17 -5z"/>
<path d="M2776 2768 c-4 -51 -9 -113 -12 -138 -4 -34 7 -13 46 90 27 74 50
136 50 138 0 1 -17 2 -39 2 l-38 0 -7 -92z"/>
<path d="M1842 2830 c0 -14 2 -19 5 -12 2 6 2 18 0 25 -3 6 -5 1 -5 -13z"/>
<path d="M5000 2829 c0 -6 -7 -8 -17 -5 -21 8 -85 -13 -77 -25 3 -6 0 -10 -7
-8 -29 3 -39 -2 -88 -48 -72 -68 -106 -146 -106 -243 0 -87 29 -180 58 -188
12 -3 15 -7 7 -12 -15 -10 77 -92 137 -121 39 -19 64 -24 138 -24 77 0 98 4
146 26 75 35 135 97 170 175 41 90 38 101 -23 96 -9 -1 -19 6 -21 16 -3 11 -5
9 -6 -8 -1 -18 -4 -21 -10 -12 -7 12 -95 21 -126 12 -5 -1 -22 -2 -37 -1 -26
1 -28 4 -28 41 0 36 2 40 25 40 17 0 29 -8 35 -22 l9 -23 7 23 c9 32 32 27 48
-10 l14 -33 1 28 c1 32 25 45 52 28 12 -7 19 -7 19 -1 0 5 8 9 18 8 47 -4 54
1 47 30 -13 53 -53 130 -74 142 -12 6 -20 14 -17 18 7 13 -84 75 -137 94 -59
20 -157 24 -157 7z m-136 -155 c9 -3 16 -16 16 -28 1 -19 2 -18 16 7 15 28 42
35 62 15 17 -17 15 -83 -3 -98 -21 -17 -54 -3 -62 28 l-6 26 -10 -25 c-6 -13
-10 -26 -9 -29 0 -3 -11 -7 -25 -8 -21 -2 -24 2 -20 18 3 10 -1 24 -9 31 -18
15 -18 34 2 53 17 18 24 19 48 10z m228 -11 c29 -26 17 -93 -18 -93 -8 0 -13
-3 -11 -7 3 -5 -6 -8 -19 -8 -23 0 -24 3 -24 63 0 61 1 62 27 62 14 0 35 -7
45 -17z m103 -35 c26 -71 26 -78 4 -78 -10 0 -19 7 -19 15 0 8 -9 15 -20 15
-11 0 -20 -4 -20 -10 0 -5 -7 -10 -15 -10 -19 0 -19 15 1 73 22 65 44 63 69
-5z m44 30 l8 -23 7 23 c5 13 15 22 28 22 15 0 18 -4 13 -17 -9 -22 -27 -74
-31 -90 -5 -21 -34 -15 -34 7 0 12 -9 39 -20 60 l-20 40 20 0 c12 0 24 -9 29
-22z m-491 -140 l5 -22 8 22 c8 22 39 31 39 12 0 -6 8 -5 20 2 16 10 24 10 39
1 15 -10 21 -10 25 0 3 8 10 6 20 -7 14 -17 16 -18 16 -3 0 14 10 17 53 17 29
0 58 -5 65 -12 9 -9 12 -9 12 0 0 7 7 12 16 12 11 0 14 -5 9 -17 -4 -10 -10
-30 -14 -45 -7 -31 -21 -26 -38 15 -8 16 -20 27 -30 26 -17 -1 -17 -2 0 -6 9
-2 17 -9 17 -14 0 -5 -8 -10 -17 -10 -17 -1 -17 -2 0 -6 9 -2 17 -9 17 -14 0
-14 -98 -11 -103 4 -3 7 -6 5 -6 -5 -1 -15 -7 -17 -38 -12 -21 3 -44 11 -50
16 -9 7 -13 7 -13 -1 0 -6 -18 -11 -45 -11 l-45 0 0 40 c0 30 4 40 16 40 9 0
18 -10 22 -22z m82 -95 c54 -1 60 -3 61 -25 l0 -23 9 21 c13 32 30 39 37 15 3
-12 9 -21 14 -21 5 0 6 7 2 16 -5 12 1 15 28 12 31 -3 34 -6 32 -33 l-2 -30
12 25 c27 56 30 57 49 15 l17 -40 1 33 0 32 88 1 c89 1 145 -1 150 -6 7 -7
-12 -34 -26 -38 -12 -3 -10 -5 6 -6 12 0 22 -6 22 -11 0 -7 -31 -10 -80 -9
-77 1 -80 2 -80 25 0 13 -5 24 -11 24 -8 0 -10 -12 -6 -36 5 -32 4 -34 -11
-22 -9 7 -21 18 -25 23 -5 6 -7 3 -3 -7 3 -10 1 -20 -4 -23 -4 -3 -10 0 -12 7
-3 7 -24 11 -56 10 -34 0 -52 3 -52 11 0 8 -3 7 -9 -2 -6 -10 -19 -12 -40 -8
-18 4 -30 3 -27 -1 3 -5 -5 -7 -17 -6 -12 1 -32 3 -44 3 -17 1 -23 8 -26 34
l-4 32 -1 -37 c-2 -34 -3 -36 -29 -29 -24 6 -28 13 -29 44 -1 20 3 34 8 31 4
-3 11 3 15 12 5 15 7 15 12 3 3 -9 17 -15 31 -16z"/>
<path d="M4932 2620 c0 -19 2 -27 5 -17 2 9 2 25 0 35 -3 9 -5 1 -5 -18z"/>
<path d="M5050 2619 c0 -16 4 -28 9 -25 5 3 9 17 9 31 0 14 -4 25 -9 25 -5 0
-9 -14 -9 -31z"/>
<path d="M4830 2495 c0 -8 5 -15 10 -15 6 0 10 7 10 15 0 8 -4 15 -10 15 -5 0
-10 -7 -10 -15z"/>
<path d="M4852 2395 c0 -16 2 -22 5 -12 2 9 2 23 0 30 -3 6 -5 -1 -5 -18z"/>
<path d="M5248 2373 c7 -3 16 -2 19 1 4 3 -2 6 -13 5 -11 0 -14 -3 -6 -6z"/>
<path d="M1885 2774 c6 -2 9 -35 8 -74 -1 -38 3 -70 8 -70 5 0 9 34 9 75 0 65
-2 75 -17 74 -10 0 -13 -2 -8 -5z"/>
<path d="M1930 2725 c0 -14 11 -43 25 -63 l25 -37 0 34 c0 21 -9 44 -25 63
l-25 30 0 -27z"/>
<path d="M2013 2680 c0 -30 2 -43 4 -27 2 15 2 39 0 55 -2 15 -4 2 -4 -28z"/>
<path d="M5376 2503 c-4 -9 -2 -21 4 -27 7 -7 10 -2 10 17 0 31 -5 34 -14 10z"/>
<path d="M3376 2502 c-2 -4 3 -8 12 -9 37 -4 885 -33 887 -31 2 2 6 13 9 26
l7 22 -455 0 c-250 0 -457 -4 -460 -8z"/>
<path d="M5280 2495 c0 -8 8 -11 20 -8 11 3 20 7 20 8 0 1 -9 5 -20 8 -12 3
-20 0 -20 -8z"/>
<path d="M3183 2493 c20 -2 54 -2 75 0 20 2 3 4 -38 4 -41 0 -58 -2 -37 -4z"/>
<path d="M2037 2467 c-3 -8 -1 -20 4 -28 6 -10 9 -7 9 14 0 29 -5 35 -13 14z"/>
<path d="M3435 2294 c-14 -15 -25 -31 -26 -35 -3 -38 0 -97 6 -111 5 -12 18
-18 42 -18 68 0 85 49 45 132 -15 32 -31 58 -35 58 -4 0 -19 -12 -32 -26z m22
-106 c-2 -13 -4 -5 -4 17 -1 22 1 32 4 23 2 -10 2 -28 0 -40z"/>
<path d="M3720 2310 c0 -5 7 -10 16 -10 8 0 12 5 9 10 -3 6 -10 10 -16 10 -5
0 -9 -4 -9 -10z"/>
<path d="M4046 2304 c-8 -21 19 -64 39 -64 23 0 19 57 -4 70 -26 13 -28 13
-35 -6z"/>
<path d="M3579 2303 c-1 -5 -1 -11 0 -15 1 -8 -14 -12 -36 -9 -10 2 -10 -4 -2
-23 13 -28 55 -41 63 -19 3 8 9 12 14 9 4 -2 19 4 32 15 21 16 23 20 10 28 -8
6 -17 6 -20 2 -3 -4 -13 -10 -22 -14 -13 -5 -18 -1 -18 13 0 19 -19 29 -21 13z"/>
<path d="M3930 2290 c0 -19 3 -21 12 -12 9 9 9 15 0 24 -9 9 -12 7 -12 -12z"/>
<path d="M4143 2303 c-15 -5 -18 -43 -4 -43 14 0 30 25 23 36 -4 6 -13 9 -19
7z"/>
<path d="M3956 2276 c-18 -29 -10 -34 20 -12 14 11 16 18 8 26 -8 8 -15 4 -28
-14z"/>
<path d="M3750 2270 c-6 -11 -8 -20 -6 -20 3 0 10 9 16 20 6 11 8 20 6 20 -3
0 -10 -9 -16 -20z"/>
<path d="M3800 2282 c0 -18 37 -75 42 -65 3 4 -6 23 -19 42 -12 19 -23 29 -23
23z"/>
<path d="M3886 2264 c-4 -9 -4 -19 -1 -22 2 -3 7 3 11 12 4 9 4 19 1 22 -2 3
-7 -3 -11 -12z"/>
<path d="M3990 2250 c-8 -5 -10 -10 -5 -10 6 0 17 5 25 10 8 5 11 10 5 10 -5
0 -17 -5 -25 -10z"/>
<path d="M3640 2229 c-11 -19 -10 -20 9 -10 27 15 36 31 17 31 -8 0 -20 -9
-26 -21z"/>
<path d="M4126 2231 c-7 -10 16 -21 45 -21 12 0 16 5 13 15 -7 16 -49 21 -58
6z"/>
<path d="M3896 2217 c-10 -8 -15 -19 -11 -29 9 -24 30 -12 33 17 2 29 2 29
-22 12z"/>
<path d="M4010 2215 c10 -13 9 -15 -11 -16 -22 0 -23 -1 -4 -9 19 -8 19 -9 -2
-9 -41 -2 -17 -41 24 -41 25 0 29 10 12 27 -7 7 -3 12 15 17 46 12 27 46 -26
46 -17 0 -18 -3 -8 -15z"/>
<path d="M3660 2191 c0 -22 21 -33 41 -20 9 6 10 9 2 9 -7 0 -10 7 -7 15 4 10
0 15 -15 15 -14 0 -21 -6 -21 -19z"/>
<path d="M3772 2180 c0 -19 2 -27 5 -17 2 9 2 25 0 35 -3 9 -5 1 -5 -18z"/>
<path d="M4104 2189 c-3 -6 -1 -15 7 -20 10 -6 6 -11 -14 -18 -15 -6 -27 -13
-27 -16 0 -4 4 -4 9 0 5 3 26 -2 45 -12 26 -12 39 -14 47 -6 8 8 3 15 -17 27
-28 15 -28 15 -5 16 18 0 21 3 12 13 -6 8 -8 17 -4 20 3 4 -5 7 -20 7 -14 0
-29 -5 -33 -11z"/>
<path d="M2957 2183 c-11 -10 -8 -103 3 -103 6 0 10 9 10 20 0 11 7 20 15 20
8 0 19 -9 25 -20 6 -11 15 -20 21 -20 6 0 6 7 -1 20 -8 14 -7 25 2 39 9 15 9
23 -1 35 -13 16 -62 22 -74 9z m57 -22 c8 -12 -21 -34 -34 -26 -17 11 -11 35
9 35 11 0 22 -4 25 -9z"/>
<path d="M3050 2135 l0 -55 41 0 c24 0 38 4 34 10 -3 6 -17 10 -31 10 -34 0
-31 28 4 33 l27 4 -27 2 c-40 2 -37 31 2 31 17 0 30 5 30 10 0 6 -18 10 -40
10 l-40 0 0 -55z"/>
<path d="M3140 2135 c0 -30 5 -55 10 -55 6 0 10 17 10 37 l0 37 38 -37 c21
-20 41 -37 45 -37 11 0 8 98 -3 105 -6 4 -10 -8 -10 -29 0 -20 -2 -36 -5 -36
-3 0 -19 16 -36 35 -17 19 -35 35 -40 35 -5 0 -9 -25 -9 -55z"/>
<path d="M3267 2183 c-4 -3 -7 -28 -7 -55 0 -45 2 -48 25 -48 14 0 25 5 25 10
0 6 -7 10 -15 10 -20 0 -19 19 1 27 15 5 15 7 0 15 -20 11 -21 28 -1 28 8 0
15 5 15 10 0 11 -33 14 -43 3z"/>
<path d="M3550 2181 c1 -20 40 -41 40 -21 0 6 -5 10 -11 10 -5 0 -8 4 -5 8 3
5 -1 9 -9 9 -8 0 -15 -3 -15 -6z"/>
<path d="M3867 2183 c-4 -3 -7 -11 -7 -17 0 -6 5 -5 12 2 6 6 9 14 7 17 -3 3
-9 2 -12 -2z"/>
<path d="M4204 2172 c-7 -4 -8 -15 -3 -29 11 -31 16 -29 21 7 5 31 1 35 -18
22z"/>
<path d="M3643 2153 c-9 -3 -10 -9 -1 -23 9 -14 9 -22 -1 -34 -11 -14 -11 -16
3 -16 9 0 19 8 22 18 3 9 9 24 14 33 7 14 5 16 -12 11 -14 -3 -19 -1 -14 6 8
13 7 13 -11 5z"/>
<path d="M3910 2142 c0 -17 37 -42 63 -42 35 0 36 27 1 40 -31 12 -64 13 -64
2z"/>
<path d="M4826 2142 c-3 -5 1 -9 9 -9 8 0 12 4 9 9 -3 4 -7 8 -9 8 -2 0 -6 -4
-9 -8z"/>
<path d="M5230 2129 c-19 -10 -40 -22 -45 -27 -11 -9 -256 -12 -250 -3 2 4
-12 11 -30 17 -20 6 -32 7 -28 1 3 -5 -4 -6 -18 -3 -22 6 -22 5 3 -9 61 -34
238 -59 253 -35 4 6 12 10 18 9 37 -4 68 2 61 13 -4 6 -3 8 4 4 15 -9 63 15
55 27 -4 6 0 8 10 4 9 -3 19 -2 22 2 10 18 -21 18 -55 0z m-123 -55 c-3 -3
-12 -4 -19 -1 -8 3 -5 6 6 6 11 1 17 -2 13 -5z"/>
<path d="M3550 2134 c0 -2 7 -9 15 -18 13 -13 13 -16 0 -30 -17 -17 -5 -29 19
-20 18 7 21 30 5 39 -6 4 -8 12 -6 19 3 6 -4 12 -14 12 -11 0 -19 -1 -19 -2z"/>
<path d="M4050 2103 c0 -32 5 -44 25 -57 24 -16 25 -16 25 7 0 13 -11 38 -25
57 l-25 34 0 -41z"/>
<path d="M4100 2111 c0 -16 40 -59 60 -64 28 -7 25 10 -9 44 -29 28 -51 37
-51 20z"/>
<path d="M3732 2090 c0 -14 2 -19 5 -12 2 6 2 18 0 25 -3 6 -5 1 -5 -13z"/>
<path d="M3860 2103 c0 -6 -3 -20 -7 -30 -7 -17 -6 -17 11 0 14 14 16 21 7 30
-8 8 -11 8 -11 0z"/>
<path d="M3765 2070 c-3 -5 1 -10 10 -10 9 0 13 5 10 10 -3 6 -8 10 -10 10 -2
0 -7 -4 -10 -10z"/>
<path d="M3976 2058 c-9 -12 -16 -29 -16 -36 0 -21 41 8 51 36 11 30 -14 30
-35 0z"/>
<path d="M3435 2059 c-11 -4 -16 -8 -12 -8 4 -1 3 -9 -2 -19 -5 -10 -6 -24 -2
-31 6 -10 10 -8 16 6 8 18 12 28 14 40 0 4 6 2 13 -5 9 -9 7 -16 -7 -32 -10
-11 -15 -23 -12 -27 4 -3 7 0 7 8 0 11 2 11 8 1 7 -10 13 -8 26 7 30 33 -6 77
-49 60z"/>
<path d="M2950 2053 c0 -5 7 -17 15 -27 8 -11 15 -30 15 -43 0 -33 13 -28 26
10 6 17 14 40 19 50 4 10 3 17 -3 17 -6 0 -14 -9 -17 -20 -3 -11 -10 -20 -15
-20 -5 0 -12 9 -15 20 -6 19 -25 29 -25 13z"/>
<path d="M3052 2048 c-16 -16 -15 -63 2 -77 8 -7 30 -11 48 -9 25 2 35 9 42
31 7 19 7 34 0 45 -13 21 -74 28 -92 10z m68 -13 c26 -31 -13 -82 -44 -56 -16
14 -22 52 -9 64 11 12 40 8 53 -8z"/>
<path d="M3160 2022 c0 -45 14 -62 50 -62 14 0 31 5 38 12 14 14 16 88 2 88
-5 0 -10 -15 -10 -34 0 -37 -21 -62 -45 -52 -10 3 -15 19 -15 46 0 22 -4 40
-10 40 -5 0 -10 -17 -10 -38z"/>
<path d="M3617 2031 c3 -12 10 -21 15 -21 13 0 6 32 -9 37 -7 3 -9 -3 -6 -16z"/>
<path d="M3679 2040 c-3 -8 -4 -21 -2 -27 5 -15 33 -17 33 -3 0 6 -4 10 -9 10
-5 0 -11 8 -13 18 -3 14 -5 14 -9 2z"/>
<path d="M3796 2032 c-3 -5 1 -9 9 -9 8 0 12 4 9 9 -3 4 -7 8 -9 8 -2 0 -6 -4
-9 -8z"/>
<path d="M4191 2028 c0 -10 -6 -18 -11 -18 -6 0 -6 -6 2 -13 7 -8 20 -12 30
-9 15 4 18 -2 18 -37 0 -36 -4 -44 -32 -62 l-33 -20 35 3 35 3 3 62 c3 54 0
62 -17 68 -11 3 -22 14 -24 23 -4 16 -5 16 -6 0z"/>
<path d="M3547 2007 c-9 -23 8 -30 24 -10 8 9 9 14 2 10 -6 -4 -13 -2 -15 5
-3 8 -7 6 -11 -5z"/>
<path d="M4041 2006 c-1 -13 -6 -16 -18 -12 -16 5 -16 4 0 -8 19 -15 47 -11
47 6 0 5 -4 7 -9 3 -5 -3 -12 3 -14 12 -4 16 -5 16 -6 -1z"/>
<path d="M3510 1975 c0 -9 9 -15 21 -15 18 0 19 2 9 15 -7 8 -16 15 -21 15 -5
0 -9 -7 -9 -15z"/>
<path d="M3576 1981 c-3 -5 1 -14 9 -21 13 -10 15 -9 15 9 0 21 -14 28 -24 12z"/>
<path d="M1497 1973 c-11 -10 -8 -73 3 -73 6 0 10 18 10 40 0 41 -2 45 -13 33z"/>
<path d="M2307 1962 c-24 -26 -23 -113 1 -135 17 -16 20 -15 40 3 32 30 30
130 -3 130 -7 0 -15 5 -17 11 -2 6 -11 2 -21 -9z m53 -67 c0 -6 -7 -20 -15
-31 -14 -18 -14 -17 -16 16 -2 31 -2 32 -6 7 -2 -15 -9 -25 -14 -22 -15 10
-10 47 9 61 14 11 19 10 30 -3 6 -9 12 -22 12 -28z"/>
<path d="M1551 1938 c0 -18 4 -51 8 -73 8 -36 9 -33 10 33 1 42 -3 72 -9 72
-5 0 -10 -15 -9 -32z"/>
<path d="M1610 1956 c0 -8 5 -16 12 -18 7 -3 12 -26 12 -58 1 -44 5 -55 19
-58 15 -3 17 5 17 57 0 54 2 61 20 61 11 0 20 7 20 15 0 11 -12 15 -50 15 -36
0 -50 -4 -50 -14z"/>
<path d="M1742 1958 c-19 -19 -14 -94 8 -135 11 -21 20 -32 20 -24 0 7 11 22
25 33 19 14 25 29 25 57 0 62 -45 102 -78 69z m58 -63 c0 -12 -7 -28 -15 -35
-13 -11 -15 -6 -15 35 0 41 2 46 15 35 8 -7 15 -23 15 -35z m-40 -6 c0 -17 -4
-28 -10 -24 -5 3 -10 17 -10 31 0 13 5 24 10 24 6 0 10 -14 10 -31z"/>
<path d="M2048 1963 c-8 -41 -4 -63 13 -63 15 0 19 8 19 35 0 24 -5 35 -15 35
-8 0 -16 -3 -17 -7z"/>
<path d="M2112 1933 c2 -21 8 -38 13 -38 6 0 11 17 13 38 3 29 0 37 -13 37
-13 0 -16 -8 -13 -37z"/>
<path d="M2170 1961 c0 -5 7 -14 15 -21 10 -8 15 -31 15 -66 0 -41 4 -54 15
-54 12 0 15 13 15 55 0 48 2 55 20 55 13 0 20 7 20 20 0 17 -7 20 -50 20 -27
0 -50 -4 -50 -9z"/>
<path d="M3610 1950 c0 -11 4 -20 9 -20 5 0 7 9 4 20 -3 11 -7 20 -9 20 -2 0
-4 -9 -4 -20z"/>
<path d="M4010 1966 c0 -2 7 -7 16 -10 8 -3 12 -2 9 4 -6 10 -25 14 -25 6z"/>
<path d="M4059 1968 c-7 -24 -5 -36 6 -32 9 4 12 -1 8 -14 -7 -28 14 -37 28
-11 8 17 8 23 -1 29 -7 4 -9 13 -6 19 5 7 -1 11 -13 11 -12 0 -21 -1 -22 -2z"/>
<path d="M1852 1930 c0 -14 2 -19 5 -12 2 6 2 18 0 25 -3 6 -5 1 -5 -13z"/>
<path d="M3425 1926 c-10 -15 -13 -35 -10 -58 3 -19 1 -47 -4 -61 -12 -31 -6
-53 16 -61 13 -5 14 -4 3 9 -10 12 -10 15 4 15 11 0 16 10 17 33 1 32 1 32 8
4 6 -26 7 -27 27 -13 23 16 42 84 27 95 -5 3 -14 18 -20 34 -16 34 -47 36 -68
3z"/>
<path d="M3530 1920 c6 -11 15 -18 20 -15 5 3 11 1 15 -5 8 -13 25 -13 25 0 0
6 -6 10 -14 10 -8 0 -16 7 -20 15 -3 8 -12 15 -21 15 -13 0 -14 -4 -5 -20z"/>
<path d="M3190 1920 c0 -16 -42 -70 -50 -65 -4 2 -13 -15 -20 -38 -7 -23 -14
-46 -15 -52 -2 -5 -4 25 -4 67 -1 42 -5 79 -9 82 -10 6 -52 -73 -52 -97 0 -29
-18 -27 -30 4 -15 36 -48 79 -61 79 -13 0 -11 -24 6 -56 9 -17 13 -41 9 -59
-4 -23 -3 -27 6 -15 9 13 11 12 9 -5 -3 -28 11 -55 27 -55 8 0 14 -6 14 -14 0
-31 78 -56 88 -27 2 6 8 11 13 11 6 0 7 -4 4 -10 -3 -5 -3 -10 2 -9 27 2 175
211 160 226 -3 2 -26 -14 -50 -37 l-45 -41 5 61 c3 33 3 60 -1 60 -3 0 -6 -5
-6 -10z"/>
<path d="M1851 1864 c0 -11 3 -14 6 -6 3 7 2 16 -1 19 -3 4 -6 -2 -5 -13z"/>
<path d="M3698 1840 c2 -22 6 -40 8 -40 2 0 4 18 4 40 0 22 -3 40 -8 40 -4 0
-6 -18 -4 -40z"/>
<path d="M3758 1840 c-3 -38 -2 -40 24 -40 34 0 54 31 38 60 -6 11 -21 20 -34
20 -21 0 -24 -6 -28 -40z m47 0 c0 -16 -6 -26 -17 -28 -14 -3 -18 3 -18 28 0
25 4 31 18 28 11 -2 17 -12 17 -28z"/>
<path d="M3845 1844 c-19 -46 -19 -47 5 -32 15 10 22 10 32 0 22 -22 26 -12
11 28 -9 22 -20 40 -24 40 -5 0 -16 -16 -24 -36z m35 -5 c0 -5 -4 -9 -10 -9
-5 0 -10 7 -10 16 0 8 5 12 10 9 6 -3 10 -10 10 -16z"/>
<path d="M3918 1841 l17 -38 16 36 c18 41 16 54 -5 25 -14 -18 -15 -18 -21 -1
-4 9 -11 17 -15 17 -5 0 -1 -17 8 -39z"/>
<path d="M4100 1870 c0 -6 7 -24 15 -40 9 -17 15 -32 15 -35 -1 -29 2 -34 16
-28 15 6 39 52 30 60 -2 3 -14 -1 -27 -7 -18 -10 -21 -10 -17 1 7 18 -8 59
-22 59 -5 0 -10 -5 -10 -10z"/>
<path d="M2941 1834 c0 -11 3 -14 6 -6 3 7 2 16 -1 19 -3 4 -6 -2 -5 -13z"/>
<path d="M4236 1824 c-7 -19 0 -34 17 -34 9 0 8 3 -1 8 -7 5 -10 16 -6 25 3 9
4 17 1 17 -3 0 -8 -7 -11 -16z"/>
<path d="M1604 1725 c1 -53 5 -75 14 -75 8 0 12 22 12 75 0 57 -3 75 -14 75
-10 0 -13 -18 -12 -75z"/>
<path d="M2168 1725 c-2 -55 0 -75 10 -75 8 0 12 22 12 75 0 98 -17 97 -22 0z"/>
<path d="M1650 1743 c0 -15 11 -41 25 -58 l24 -30 1 29 c0 16 -11 41 -25 58
l-25 30 0 -29z"/>
<path d="M1733 1715 c0 -33 2 -45 4 -27 2 18 2 45 0 60 -2 15 -4 0 -4 -33z"/>
<path d="M2210 1750 c0 -23 33 -90 45 -90 15 0 1 59 -20 85 l-24 30 -1 -25z"/>
<path d="M3250 1750 c-19 -10 -47 -31 -61 -47 -27 -28 -44 -73 -29 -73 21 0
151 120 144 132 -7 11 -14 10 -54 -12z"/>
<path d="M3601 1740 c0 -25 2 -31 8 -21 8 13 12 13 28 0 16 -13 17 -13 4 3 -7
10 -10 26 -7 35 6 17 5 16 -8 0 -14 -18 -14 -18 -19 0 -3 10 -5 2 -6 -17z"/>
<path d="M3662 1740 c0 -19 2 -27 5 -17 2 9 2 25 0 35 -3 9 -5 1 -5 -18z"/>
<path d="M3684 1755 c-10 -24 4 -45 28 -44 l23 0 -24 10 c-17 7 -22 15 -18 29
6 23 -1 27 -9 5z"/>
<path d="M3751 1740 c-1 -25 2 -31 8 -21 8 13 12 13 28 0 16 -13 17 -13 4 3
-7 10 -10 25 -7 34 5 14 4 15 -8 5 -11 -9 -15 -9 -19 1 -3 7 -6 -3 -6 -22z"/>
<path d="M3805 1760 c-3 -5 5 -14 17 -21 22 -12 22 -12 3 -20 -16 -6 -17 -8
-3 -8 27 -1 31 16 9 38 -11 11 -23 16 -26 11z"/>
<path d="M3872 1740 c0 -19 2 -27 5 -17 2 9 2 25 0 35 -3 9 -5 1 -5 -18z"/>
<path d="M3910 1744 c-6 -14 -10 -26 -10 -27 0 -1 13 -2 28 -2 27 0 28 2 18
28 -13 34 -24 34 -36 1z m24 1 c3 -8 1 -15 -4 -15 -6 0 -10 7 -10 15 0 8 2 15
4 15 2 0 6 -7 10 -15z"/>
<path d="M3968 1739 c3 -22 7 -27 13 -18 7 12 11 12 17 1 6 -9 9 -2 9 20 0 18
-2 25 -4 16 -5 -22 -23 -24 -23 -3 0 8 -4 15 -8 15 -5 0 -6 -14 -4 -31z"/>
<path d="M4042 1740 c0 -19 2 -27 5 -17 2 9 2 25 0 35 -3 9 -5 1 -5 -18z"/>
<path d="M4225 1761 c-3 -5 -2 -12 3 -15 5 -3 9 1 9 9 0 17 -3 19 -12 6z"/>
<path d="M4132 1741 c2 -7 7 -12 11 -12 12 1 9 15 -3 20 -7 2 -11 -2 -8 -8z"/>
<path d="M4210 1733 c0 -6 5 -15 11 -18 7 -5 5 -13 -6 -25 -16 -18 -16 -18 4
-13 12 3 19 8 17 11 -3 3 2 10 11 17 11 8 13 14 5 19 -7 4 -12 2 -12 -5 0 -7
-7 -4 -15 7 -8 10 -15 14 -15 7z"/>
<path d="M2321 1714 c0 -11 3 -14 6 -6 3 7 2 16 -1 19 -3 4 -6 -2 -5 -13z"/>
<path d="M3426 1717 c3 -10 9 -15 12 -12 3 3 0 11 -7 18 -10 9 -11 8 -5 -6z"/>
<path d="M4154 1702 c-16 -2 -23 -12 -26 -33 -5 -34 10 -38 36 -10 23 25 17
47 -10 43z"/>
<path d="M3457 1680 c3 -12 -2 -29 -12 -40 -16 -18 -16 -20 -2 -20 24 0 40 35
27 60 -14 26 -20 26 -13 0z"/>
<path d="M3650 1649 c0 -39 1 -40 33 -37 25 2 33 8 35 26 5 30 -14 52 -44 52
-21 0 -24 -5 -24 -41z m55 11 c8 -26 -1 -40 -26 -40 -14 0 -19 7 -19 30 0 23
5 30 19 30 11 0 22 -9 26 -20z"/>
<path d="M3730 1650 c0 -39 1 -40 33 -39 23 1 26 3 10 6 -18 3 -23 11 -23 34
0 26 3 29 34 29 33 0 35 -2 39 -37 l4 -38 1 38 c2 48 29 52 34 5 3 -32 5 -33
48 -34 30 -1 49 3 57 14 11 13 13 13 19 -1 3 -10 10 -17 15 -17 6 0 5 9 -1 20
-8 14 -8 26 0 40 6 12 7 20 1 20 -5 0 -11 -6 -14 -12 -4 -10 -7 -10 -18 0 -22
20 -34 14 -14 -8 18 -19 18 -22 2 -37 -16 -16 -17 -16 -17 9 0 14 -6 30 -12
35 -7 6 -55 11 -105 12 l-93 2 0 -41z m189 16 c15 -18 3 -46 -20 -46 -22 0
-34 22 -25 45 7 19 30 19 45 1z"/>
<path d="M2323 1640 c0 -25 2 -35 4 -22 2 12 2 32 0 45 -2 12 -4 2 -4 -23z"/>
<path d="M4230 1654 c0 -8 5 -12 10 -9 6 3 10 10 10 16 0 5 -4 9 -10 9 -5 0
-10 -7 -10 -16z"/>
<path d="M3502 1624 c10 -10 20 -16 22 -13 3 3 -5 11 -17 18 -21 13 -21 12 -5
-5z"/>
<path d="M3030 1617 c0 -7 5 -18 11 -24 8 -8 5 -15 -12 -25 -13 -7 -24 -21
-25 -30 0 -10 -2 -30 -3 -45 l-2 -28 -16 23 c-18 26 -46 30 -41 5 4 -24 48
-45 65 -32 19 17 33 1 33 -38 l0 -36 -25 27 c-42 45 -60 32 -69 -49 -5 -49 1
-55 49 -48 38 5 47 2 69 -20 14 -14 26 -33 26 -42 0 -22 76 -21 84 2 4 9 2 19
-3 22 -14 9 -2 57 19 76 16 15 17 14 12 -10 -2 -14 -8 -28 -13 -31 -5 -3 -9
-10 -9 -16 0 -16 26 9 48 46 l19 33 -26 9 c-35 13 -61 6 -61 -16 0 -25 -19
-35 -26 -15 -5 12 -9 13 -14 5 -10 -17 -30 -3 -30 20 0 20 33 44 44 32 4 -3 4
1 0 11 -3 9 -1 24 6 32 6 8 9 19 5 25 -8 13 -45 13 -45 0 0 -5 -8 -2 -18 8
-12 11 -14 20 -8 24 6 4 7 8 2 8 -5 0 -3 6 3 14 6 7 9 20 7 27 -2 8 -7 26 -10
42 -4 18 -13 27 -26 27 -11 0 -20 -6 -20 -13z"/>
<path d="M4170 1618 c0 -4 7 -8 16 -8 13 0 14 -3 5 -13 -8 -10 -7 -14 3 -14 8
0 13 8 11 19 -5 23 4 23 13 0 7 -18 8 -18 27 1 11 11 14 17 8 13 -7 -4 -13 -3
-13 2 0 5 -16 9 -35 9 -19 0 -35 -4 -35 -9z"/>
<path d="M4099 1578 c-10 -19 -8 -24 12 -41 l24 -19 3 27 c7 53 -17 74 -39 33z"/>
<path d="M3208 1567 c-15 -12 -37 -30 -49 -39 -22 -17 -22 -18 -5 -37 17 -19
20 -19 48 -5 41 21 73 104 40 104 -4 0 -19 -10 -34 -23z"/>
<path d="M3440 1582 c0 -7 -4 -10 -10 -7 -5 3 -10 2 -10 -4 0 -15 20 -25 30
-15 5 5 5 16 0 24 -7 11 -10 11 -10 2z"/>
<path d="M3554 1555 c11 -8 25 -15 30 -15 6 0 2 7 -8 15 -11 8 -25 15 -30 15
-6 0 -2 -7 8 -15z"/>
<path d="M3736 1545 c4 -8 8 -15 10 -15 2 0 4 7 4 15 0 8 -4 15 -10 15 -5 0
-7 -7 -4 -15z"/>
<path d="M4175 1550 c-3 -5 -1 -10 4 -10 6 0 11 5 11 10 0 6 -2 10 -4 10 -3 0
-8 -4 -11 -10z"/>
<path d="M4237 1549 c7 -7 15 -10 18 -7 3 3 -2 9 -12 12 -14 6 -15 5 -6 -5z"/>
<path d="M3541 1516 c-44 -15 -68 -56 -55 -93 12 -34 47 -42 77 -16 15 12 18
13 9 2 -10 -13 -9 -22 4 -48 l16 -32 20 40 c11 23 24 39 28 36 9 -6 27 15 25
30 -4 34 -21 57 -54 74 -31 15 -44 16 -70 7z m75 -121 c-6 -18 -26 -11 -26 8
0 7 4 6 10 -3 8 -13 10 -12 10 4 0 11 3 17 6 13 4 -3 4 -13 0 -22z"/>
<path d="M2317 1500 c-3 -11 -1 -23 4 -26 5 -3 9 6 9 20 0 31 -6 34 -13 6z"/>
<path d="M4211 1504 c0 -11 3 -14 6 -6 3 7 2 16 -1 19 -3 4 -6 -2 -5 -13z"/>
<path d="M3445 1500 c-16 -7 -17 -9 -3 -9 9 -1 20 4 23 9 7 11 7 11 -20 0z"/>
<path d="M1762 1480 c0 -14 2 -19 5 -12 2 6 2 18 0 25 -3 6 -5 1 -5 -13z"/>
<path d="M3296 1492 c-3 -5 -14 -53 -25 -107 -20 -99 -20 -100 -1 -133 11 -18
20 -35 20 -36 0 -2 -33 -4 -72 -5 -89 -2 -105 -6 -113 -32 -10 -30 20 -67 62
-78 63 -17 143 -24 143 -14 0 5 -14 7 -31 5 -22 -3 -30 -1 -25 7 4 6 18 11 32
11 l24 0 0 195 c0 107 -2 195 -4 195 -3 0 -7 -4 -10 -8z"/>
<path d="M3410 1430 c0 -6 7 -10 15 -10 8 0 15 2 15 4 0 2 -7 6 -15 10 -8 3
-15 1 -15 -4z"/>
<path d="M3883 1427 c-29 -5 -53 -13 -53 -18 0 -10 29 -39 40 -39 5 0 11 -10
13 -22 l4 -23 8 22 c4 12 15 25 25 28 14 4 40 43 40 60 0 6 -12 5 -77 -8z"/>
<path d="M4175 1390 c-4 -17 -11 -28 -16 -24 -5 3 -9 -4 -9 -15 0 -22 28 -35
54 -25 9 3 16 12 16 19 0 13 -29 75 -35 75 -2 0 -6 -14 -10 -30z"/>
<path d="M3771 1366 c-1 -47 -2 -49 -17 -30 -8 10 -13 14 -10 7 4 -6 2 -22 -3
-35 -6 -15 -6 -30 0 -39 8 -12 10 -12 8 1 -3 27 2 55 8 43 3 -10 8 -9 20 2 8
8 19 12 25 9 7 -4 8 -2 4 5 -4 6 -12 8 -18 5 -7 -5 -9 -1 -5 9 3 8 2 28 -3 44
-7 25 -8 22 -9 -21z"/>
<path d="M2320 1380 c-21 -7 -21 -8 -5 -9 11 0 27 4 35 9 18 11 5 11 -30 0z"/>
<path d="M3684 1372 c23 -26 26 -27 26 -5 0 9 -3 13 -7 10 -3 -4 -13 -1 -22 5
-10 8 -9 4 3 -10z"/>
<path d="M1768 1373 c12 -2 30 -2 40 0 9 3 -1 5 -23 4 -22 0 -30 -2 -17 -4z"/>
<path d="M3992 1373 c-15 -3 -27 -15 -34 -34 -8 -23 -13 -27 -23 -19 -10 9
-16 6 -25 -10 -6 -12 -9 -26 -7 -33 2 -7 0 -20 -5 -29 -5 -12 -5 -18 2 -18 5
0 9 -3 9 -7 -4 -23 4 -35 33 -53 25 -15 42 -18 77 -13 57 8 125 48 117 69 -3
9 -1 12 4 9 6 -4 9 5 8 21 -2 14 -8 29 -15 31 -7 3 -13 10 -13 17 -1 26 -72
80 -98 75 -4 -1 -17 -4 -30 -6z m46 -45 c18 -18 14 -37 -7 -31 -21 5 -51 -30
-51 -59 0 -21 -26 -24 -33 -4 -9 23 14 72 42 89 32 20 34 20 49 5z"/>
<path d="M3666 1345 c4 -8 11 -15 16 -15 6 0 5 6 -2 15 -7 8 -14 15 -16 15 -2
0 -1 -7 2 -15z"/>
<path d="M3520 1309 c0 -11 -5 -30 -11 -41 -6 -11 -7 -23 -3 -27 5 -3 10 -13
12 -20 5 -21 52 -63 52 -47 0 7 9 21 20 31 26 23 26 65 1 72 -10 2 -24 16 -31
29 -16 29 -40 32 -40 3z m34 -47 c-1 -7 -2 -24 -3 -39 -1 -22 -3 -25 -11 -13
-14 22 -13 73 3 68 6 -3 12 -10 11 -16z"/>
<path d="M3680 1312 c0 -5 7 -13 16 -16 10 -4 14 -1 12 6 -5 15 -28 23 -28 10z"/>
<path d="M4383 1313 c9 -2 25 -2 35 0 9 3 1 5 -18 5 -19 0 -27 -2 -17 -5z"/>
<path d="M3632 1300 c2 -6 19 -20 38 -31 19 -12 26 -14 15 -5 -11 9 -28 23
-39 32 -10 9 -17 11 -14 4z"/>
<path d="M3810 1260 c0 -5 5 -10 10 -10 6 0 10 5 10 10 0 6 -4 10 -10 10 -5 0
-10 -4 -10 -10z"/>
<path d="M4188 1236 c-10 -7 -18 -17 -18 -23 0 -5 -5 -14 -12 -21 -15 -15 -21
-52 -8 -52 6 0 20 -9 32 -20 24 -22 38 -26 38 -10 0 6 11 15 25 20 32 12 34
56 4 94 -23 29 -36 32 -61 12z"/>
<path d="M3630 1231 c0 -5 7 -12 16 -15 14 -5 15 -4 4 9 -14 17 -20 19 -20 6z"/>
<path d="M3056 1199 c-11 -11 -15 -19 -9 -19 12 0 38 28 32 34 -2 2 -13 -5
-23 -15z"/>
<path d="M3690 1201 c0 -6 4 -13 10 -16 6 -3 7 1 4 9 -7 18 -14 21 -14 7z"/>
<path d="M3850 1196 c0 -8 -8 -17 -17 -19 -15 -4 -15 -6 5 -12 31 -10 29 -48
-5 -74 l-28 -20 36 -1 c43 0 59 15 59 56 0 24 -5 34 -21 39 -14 5 -19 13 -16
26 3 10 1 19 -4 19 -5 0 -9 -6 -9 -14z"/>
<path d="M2940 1185 c0 -16 27 -32 37 -21 7 7 -16 36 -28 36 -5 0 -9 -7 -9
-15z"/>
<path d="M3471 1177 c0 -10 -5 -15 -11 -12 -5 3 -10 2 -10 -4 0 -5 9 -13 20
-16 26 -8 25 -17 -4 -44 -16 -15 -29 -20 -38 -15 -10 6 -10 4 1 -9 7 -9 22
-17 32 -17 27 0 62 38 54 58 -4 9 -8 23 -8 30 0 6 -6 12 -13 12 -7 0 -15 8
-17 18 -4 16 -5 16 -6 -1z"/>
<path d="M3595 1129 c-4 -6 -5 -12 -2 -15 2 -3 7 2 10 11 7 17 1 20 -8 4z"/>
<path d="M3552 1100 c-20 -32 -14 -46 10 -22 15 14 19 25 12 32 -6 6 -14 3
-22 -10z"/>
<path d="M4100 1098 c0 -4 -8 -8 -17 -8 -14 0 -15 -2 -4 -9 7 -5 10 -14 7 -20
-10 -16 -2 -13 20 7 24 21 27 39 8 39 -7 0 -14 -4 -14 -9z"/>
<path d="M3656 1073 c-6 -14 -5 -15 5 -6 7 7 10 15 7 18 -3 3 -9 -2 -12 -12z"/>
<path d="M1481 1010 c0 -9 -10 -23 -22 -33 -28 -25 -24 -113 7 -133 19 -13 24
-12 48 11 23 22 27 32 24 73 -2 37 -8 49 -25 57 -12 5 -24 16 -27 25 -3 13 -4
13 -5 0z m37 -98 c-5 -45 -28 -38 -28 8 0 37 2 41 16 30 8 -7 14 -25 12 -38z
m-38 -3 c0 -17 -4 -28 -10 -24 -5 3 -10 17 -10 31 0 13 5 24 10 24 6 0 10 -14
10 -31z"/>
<path d="M2144 750 c0 -151 2 -213 3 -138 2 76 2 200 0 276 -1 75 -3 13 -3
-138z"/>
<path d="M1580 761 c0 -140 2 -252 4 -250 8 8 12 479 4 491 -4 7 -8 -101 -8
-241z"/>
<path d="M2577 992 c-22 -24 -23 -105 -1 -126 21 -22 29 -20 54 12 17 21 21
36 17 65 -9 63 -38 84 -70 49z m47 -38 c16 -41 -2 -71 -33 -55 -25 14 -28 46
-3 60 24 14 29 13 36 -5z"/>
<path d="M4763 970 c0 -25 2 -35 4 -22 2 12 2 32 0 45 -2 12 -4 2 -4 -23z"/>
<path d="M1928 993 c-25 -3 -38 -9 -38 -19 0 -8 4 -14 10 -14 5 0 10 -26 12
-57 2 -46 7 -59 21 -61 15 -3 17 5 17 57 0 54 2 61 20 61 13 0 20 7 20 20 0
11 -6 19 -12 18 -7 -1 -30 -3 -50 -5z"/>
<path d="M2019 985 c-19 -19 -10 -122 12 -135 8 -6 15 -6 17 0 2 6 8 10 14 10
19 0 37 34 38 71 0 57 -47 88 -81 54z m56 -61 c0 -23 -4 -29 -23 -30 -27 -1
-38 17 -27 44 7 15 9 14 15 -8 l8 -25 1 28 c1 38 26 30 26 -9z"/>
<path d="M2305 969 c-19 -36 -19 -37 23 -45 32 -6 32 -6 32 35 0 34 -3 41 -20
41 -12 0 -26 -12 -35 -31z"/>
<path d="M2391 943 c1 -92 15 -109 23 -30 7 67 3 87 -15 87 -5 0 -9 -26 -8
-57z"/>
<path d="M2454 985 c-3 -8 0 -21 8 -29 9 -9 14 -31 13 -60 -2 -39 1 -46 16
-46 16 0 19 8 19 55 0 48 2 55 20 55 13 0 20 7 20 20 0 17 -7 20 -45 20 -31 0
-47 -5 -51 -15z"/>
<path d="M1182 973 c-5 -10 -7 -24 -4 -32 3 -8 0 -11 -7 -7 -7 5 -9 1 -5 -8 3
-9 12 -16 19 -16 7 0 20 -3 29 -6 13 -5 16 2 16 40 0 39 -3 46 -20 46 -10 0
-23 -8 -28 -17z"/>
<path d="M1265 981 c-8 -14 -2 -141 8 -141 4 0 8 17 9 38 1 20 2 52 3 70 2 33
-9 50 -20 33z"/>
<path d="M1343 983 c-26 -5 -32 -33 -7 -33 10 0 15 -8 14 -22 -5 -57 0 -88 15
-88 12 0 15 13 15 55 0 52 1 55 25 55 18 0 25 5 25 20 0 16 -6 20 -32 19 -18
-1 -43 -4 -55 -6z"/>
<path d="M1742 958 c-7 -29 -6 -34 12 -40 41 -12 46 -9 46 32 0 36 -3 40 -25
40 -19 0 -26 -7 -33 -32z"/>
<path d="M1832 915 c1 -41 6 -75 10 -75 4 0 8 34 8 75 0 44 -4 75 -10 75 -6 0
-9 -30 -8 -75z"/>
<path d="M3565 921 c-3 -5 -1 -12 5 -16 5 -3 10 1 10 9 0 18 -6 21 -15 7z"/>
<path d="M3590 922 c0 -9 47 -8 57 1 3 4 -8 7 -25 7 -18 0 -32 -4 -32 -8z"/>
<path d="M1663 885 c0 -22 2 -30 4 -17 2 12 2 30 0 40 -3 9 -5 -1 -4 -23z"/>
<path d="M2222 890 c0 -19 2 -27 5 -17 2 9 2 25 0 35 -3 9 -5 1 -5 -18z"/>
<path d="M3811 894 c0 -11 3 -14 6 -6 3 7 2 16 -1 19 -3 4 -6 -2 -5 -13z"/>
<path d="M3525 890 c3 -5 8 -10 11 -10 2 0 4 5 4 10 0 6 -5 10 -11 10 -5 0 -7
-4 -4 -10z"/>
<path d="M2391 821 c-8 -6 -9 -11 -3 -15 6 -3 14 -1 17 5 9 14 2 20 -14 10z"/>
<path d="M2449 828 c0 -2 -2 -36 -5 -75 -3 -60 -1 -73 11 -73 12 0 15 15 15
75 0 43 -4 75 -10 75 -5 0 -10 -1 -11 -2z"/>
<path d="M2563 755 c0 -44 2 -61 4 -37 2 23 2 59 0 80 -2 20 -4 1 -4 -43z"/>
<path d="M1827 800 c-3 -11 -3 -20 -1 -20 2 0 8 9 14 20 6 11 7 20 2 20 -6 0
-12 -9 -15 -20z"/>
<path d="M1886 812 c-3 -5 -5 -39 -5 -75 1 -51 4 -67 15 -67 11 0 14 17 14 75
0 67 -9 91 -24 67z"/>
<path d="M2013 775 c0 -27 2 -38 4 -22 2 15 2 37 0 50 -2 12 -4 0 -4 -28z"/>
<path d="M1254 791 c0 -15 3 -17 13 -9 7 6 13 14 13 19 0 5 -6 9 -13 9 -7 0
-13 -9 -13 -19z"/>
<path d="M1319 758 c-1 -29 -3 -63 -4 -75 -1 -14 3 -23 11 -23 9 0 15 14 16
43 1 23 2 57 3 75 1 21 -3 32 -11 32 -10 0 -14 -16 -15 -52z"/>
<path d="M2490 773 c0 -15 9 -41 19 -56 l18 -29 5 30 c3 21 -3 37 -19 56 l-23
27 0 -28z"/>
<path d="M1931 765 c0 -17 10 -43 24 -60 l25 -30 0 30 c0 17 -11 43 -25 60
l-24 30 0 -30z"/>
<path d="M1360 764 c0 -10 11 -37 25 -59 l24 -40 1 36 c0 25 -7 42 -25 59 -23
22 -25 22 -25 4z"/>
<path d="M1483 685 c0 -33 2 -45 4 -27 2 18 2 45 0 60 -2 15 -4 0 -4 -33z"/>
<path d="M1482 510 c0 -19 2 -27 5 -17 2 9 2 25 0 35 -3 9 -5 1 -5 -18z"/>
<path d="M2590 526 c0 -8 5 -18 10 -21 6 -3 10 1 10 9 0 8 -4 18 -10 21 -5 3
-10 -1 -10 -9z"/>
<path d="M2041 504 c0 -11 3 -14 6 -6 3 7 2 16 -1 19 -3 4 -6 -2 -5 -13z"/>
</g>
</svg>
